<?xml version="1.0" encoding="UTF-8" standalone="no"?>
<svg xmlns:rdf="http://www.w3.org/1999/02/22-rdf-syntax-ns#" xmlns="http://www.w3.org/2000/svg" height="16" width="16" version="1.0" xmlns:cc="http://creativecommons.org/ns#" xmlns:dc="http://purl.org/dc/elements/1.1/">
 <path fill-rule="evenodd" fill="#55739a" d="m1.457 1.998c-0.2505 0-0.46091 0.2085-0.46091 0.459v11.08c0 0.259 0.20211 0.461 0.46091 0.461h13.08c0.259 0 0.459-0.202 0.459-0.461v-9.078c0-0.2504-0.208-0.461-0.459-0.461h-6.5409l-2-2h-4.5391zm7.0684 4.002v6l-3.5254-0.637 0.0059-4.7263 3.5195-0.6367zm0.6875 0.8008c0.3375 0 0.6133 0.2758 0.6133 0.6133v0.0742c0.3878 0.1875 0.6878 0.5004 0.8378 0.9004 0.038-0.0125 0.088-0.0137 0.125-0.0137 0.338 0 0.586 0.225 0.586 0.5625s-0.274 0.6133-0.611 0.6133c-0.038 0-0.076 0.0008-0.114-0.0117-0.15 0.4-0.45 0.7249-0.8375 0.9119v0.074c0 0.338-0.2738 0.612-0.6113 0.612-0.1375 0-0.275-0.038-0.375-0.125v-0.95c0.1-0.0745 0.2375-0.1245 0.375-0.1245 0.2125 0 0.3875 0.0995 0.5 0.2615 0.3248-0.15 0.5628-0.424 0.6878-0.7615-0.138-0.1125-0.225-0.2871-0.225-0.4746 0-0.2 0.087-0.3621 0.225-0.4746-0.113-0.325-0.364-0.6-0.6761-0.75-0.1125 0.1625-0.2875 0.2617-0.5 0.2617-0.1375 0-0.275-0.0375-0.375-0.125v-0.9492c0.1-0.075 0.2375-0.125 0.375-0.125zm-2.4844 0.9863c-0.1406 0.0031-0.2773 0.032-0.4023 0.1133-0.425 0.275-0.4121 1.0004 0.0254 1.2754 0.2 0.15 0.55 0.3367 0.375 0.6367-0.225 0.1875-0.5129-0.0246-0.7129-0.1621 0 0.175 0.0117 0.3506 0.0117 0.5256 0.3 0.125 0.6754 0.212 0.9629 0 0.3625-0.2877 0.3379-0.9377-0.0371-1.1877-0.2-0.175-0.6133-0.3129-0.4883-0.6504 0.1875-0.225 0.4762-0.0867 0.7012-0.0117 0-0.1625-0.0137-0.3375-0.0137-0.5-0.1375-0.0188-0.2813-0.0422-0.4219-0.0391z"/>
 <circle fill-rule="evenodd" cy="12.5" cx="13.5" stroke-miterlimit="1.4142" clip-rule="evenodd" r="2.5" fill="#b23015"/>
 <path d="m14.073 11c-0.11592 0-0.23228 0.04324-0.31922 0.13018l-0.4777 0.47885c-0.17387 0.17388-0.17387 0.46345 0 0.63733l-1.276 1.275v0.319l0.479 0.16v-0.31923h0.31809v-0.31923h0.31922l0.63731-0.63733c0.08694 0.08694 0.20331 0.13018 0.31922 0.13018 0.11592 0 0.23115-0.04324 0.31809-0.13018l0.47883-0.47772c0.17387-0.17388 0.17387-0.46345 0-0.63733l-0.479-0.479c-0.08694-0.08694-0.20217-0.13018-0.31809-0.13018zm0 0.18792c0.01449 0 0.04347 0.000453 0.07245 0.02943l0.63731 0.63733c0.04347 0.04347 0.04347 0.11615 0 0.15962-0.01449 0.01449-0.04347 0.02943-0.07245 0.02943s-0.05819-0.01494-0.08717-0.02943l-0.6373-0.63733c-0.04347-0.04347-0.04347-0.11614 0-0.15962 0.02898-0.01449 0.05819-0.02943 0.08717-0.02943z" stroke-miterlimit="1.4142" clip-rule="evenodd" fill="#fff"/>
</svg>
