<?xml version="1.0" encoding="UTF-8" standalone="no"?>
<svg xmlns:rdf="http://www.w3.org/1999/02/22-rdf-syntax-ns#" xmlns="http://www.w3.org/2000/svg" height="16" width="16" version="1.0" xmlns:cc="http://creativecommons.org/ns#" xmlns:dc="http://purl.org/dc/elements/1.1/">
 <path d="m1.4609 2c-0.2505 0-0.4609 0.2084-0.4609 0.459v11.08c0 0.259 0.2021 0.461 0.4609 0.461h13.08c0.259 0 0.459-0.202 0.459-0.461v-9.0781c0-0.2503-0.208-0.4609-0.459-0.4609h-6.541l-2-2h-4.5391zm7.0684 4.002v6l-3.5254-0.63672 0.00586-4.7266 3.5195-0.63672zm0.6875 0.80078c0.3375 0.000002 0.61328 0.27578 0.61328 0.61328v0.07422c0.3875 0.1875 0.68789 0.50038 0.83789 0.90039 0.0375-0.0125 0.0875-0.01367 0.125-0.01367 0.3375 0 0.58594 0.225 0.58594 0.5625s-0.27383 0.61328-0.61133 0.61328c-0.0375 0-0.07578 0.000776-0.11328-0.01172-0.15 0.4-0.45039 0.72461-0.83789 0.91211v0.07422c0 0.3375-0.27383 0.61133-0.61133 0.61133-0.1375 0-0.275-0.0375-0.375-0.125v-0.94922c0.1-0.075 0.2375-0.125 0.375-0.125 0.2125 0 0.3875 0.09922 0.5 0.26172 0.325-0.15 0.5625-0.42422 0.6875-0.76172-0.1375-0.1125-0.22461-0.28711-0.22461-0.47461 0.000001-0.2 0.08711-0.36211 0.22461-0.47461-0.1125-0.325-0.36328-0.6-0.67578-0.75-0.1125 0.1625-0.2875 0.26172-0.5 0.26172-0.1375 0-0.275-0.0375-0.375-0.125v-0.94922c0.1-0.075 0.2375-0.125 0.375-0.125zm-2.4844 0.9863c-0.14062 0.0031-0.27734 0.03203-0.40234 0.11328-0.425 0.275-0.41211 1.0004 0.025391 1.2754 0.2 0.15 0.55 0.33672 0.375 0.63672-0.225 0.1875-0.51289-0.02461-0.71289-0.16211 0 0.175 0.011719 0.35039 0.011719 0.52539 0.3 0.125 0.67539 0.2125 0.96289 0 0.3625-0.2875 0.33789-0.9375-0.03711-1.1875-0.2-0.1751-0.6133-0.313-0.4883-0.6505 0.1875-0.225 0.4762-0.0867 0.7012-0.0117 0-0.1625-0.013672-0.3375-0.013672-0.5-0.1375-0.01875-0.28125-0.04214-0.42187-0.03906z" fill-rule="evenodd" fill="#55739a"/>
 <path d="m15.898 13.871-2.201-3.8019c-0.02501-0.05003-0.07504-0.10004-0.10004-0.15007-0.2251-0.22511-0.57526-0.22511-0.80036 0-0.05003 0.05003-0.07504 0.07504-0.10004 0.12506l-2.201 3.8019c-0.02501 0.05003-0.05003 0.10004-0.07504 0.17509-0.07504 0.30015 0.10004 0.62531 0.40018 0.70035 0.05003 0.02501 0.12506 0.02501 0.17508 0.02501h4.402c0.20009 0.02501 0.42519-0.07504 0.52524-0.27514 0.10004-0.2001 0.10004-0.42521-0.02501-0.6003z" fill="#b23015"/>
 <path d="m13.224 14c-0.25987 0-0.44888-0.2126-0.44888-0.44882s0.21262-0.44882 0.44888-0.44882c0.25987 0 0.44887 0.2126 0.44887 0.44882 0 0.25984-0.189 0.44882-0.44887 0.44882zm0.16538-1.2047h-0.33075l-0.30712-1.3228c0-0.25984 0.21263-0.47244 0.4725-0.47244s0.4725 0.2126 0.4725 0.47244z" fill="#fff"/>
</svg>
