<?xml version="1.0" encoding="utf-8"?>
<!-- Generator: Adobe Illustrator 25.2.2, SVG Export Plug-In . SVG Version: 6.00 Build 0)  -->
<svg version="1.1" id="Layer_1" xmlns="http://www.w3.org/2000/svg" xmlns:xlink="http://www.w3.org/1999/xlink" x="0px" y="0px"
	 viewBox="0 0 51 28" style="enable-background:new 0 0 51 28;" xml:space="preserve">
<style type="text/css">
	.st0{display:none;}
	.st1{display:inline;fill:url(#Shape_2_);}
	.st2{clip-path:url(#SVGID_2_);}
	.st3{fill:#FFFFFF;}
</style>
<g id="Ebene_2" class="st0">
	
		<linearGradient id="Shape_2_" gradientUnits="userSpaceOnUse" x1="-731.6113" y1="665.3596" x2="-731.6113" y2="665.1332" gradientTransform="matrix(220.9333 0 0 -118.3742 161662.7969 78762.0078)">
		<stop  offset="0" style="stop-color:#BFD5E0"/>
		<stop  offset="1" style="stop-color:#90ACBB"/>
	</linearGradient>
	<path id="Shape_1_" class="st1" d="M11.3,8.9c-0.3-0.5-0.5-1.1-0.5-1.7c0-1.9,1.6-3.5,3.5-3.5c0.7,0,1.4,0.2,1.9,0.6
		c-0.4,0.9-0.6,1.9-0.6,3c0,0.2,0,0.4,0,0.6c-0.1,0-0.3,0-0.4,0C13.8,7.8,12.5,8.2,11.3,8.9L11.3,8.9z M10.5,22.3
		c-2-1.4-3.3-3.8-3.3-6.5c0-0.7,0.1-1.3,0.2-2c-0.1,0-0.1,0-0.2,0c-3.7,0-6.7,3-6.7,6.7s3,6.7,6.7,6.7c1.4,0,2.7-0.4,3.8-1.2
		c-0.5-0.7-0.7-1.5-0.7-2.4C10.3,23.2,10.4,22.7,10.5,22.3L10.5,22.3z M10.8,21.6c0.6-1.2,1.7-2,3-2.3c0.1,0,0.2,0,0.4-0.1
		c0.1,0,0.2,0,0.4,0c0.1,0,0.1,0,0.2,0c0.2,0,0.4,0,0.6,0c-0.1-0.5-0.1-0.9-0.1-1.4c0-2.2,0.7-4.3,2-6c-0.3-0.3-0.5-0.7-0.7-1.1
		c-0.1-0.1-0.1-0.2-0.2-0.3c0-0.1-0.1-0.2-0.2-0.3c-0.2-0.5-0.3-1-0.4-1.5c-0.2,0-0.3,0-0.5,0c-1.3,0-2.5,0.3-3.5,0.9
		c-0.1,0.1-0.2,0.1-0.3,0.2c-0.1,0.1-0.2,0.1-0.3,0.2c-1.2,0.8-2.1,2-2.7,3.3c0,0.1-0.1,0.2-0.1,0.4c0,0.1-0.1,0.2-0.1,0.4
		C8.1,14.5,8,15.2,8,15.8C7.9,18.2,9.1,20.3,10.8,21.6L10.8,21.6z M34.4,13c1-0.5,2.1-0.8,3.2-0.9C37.3,8.7,34.4,6,30.9,6
		c-0.1,0-0.3,0-0.4,0c0.1,0.4,0.1,0.8,0.1,1.2c0,0.6-0.1,1.2-0.2,1.8C32.1,10,33.5,11.4,34.4,13L34.4,13z M16.5,8.3
		c0,0.1,0,0.3,0.1,0.4c0.1,0.3,0.2,0.6,0.3,0.9c0,0.1,0.1,0.2,0.2,0.4c0,0.1,0.1,0.2,0.2,0.4c0.2,0.3,0.4,0.7,0.6,1
		c0.5-0.5,1-1,1.6-1.4c0.1-0.1,0.2-0.2,0.3-0.2c0.1-0.1,0.2-0.2,0.3-0.2c1.5-1,3.4-1.6,5.3-1.6h0.1c0.1,0,0.2,0,0.4,0
		c0.2,0,0.3,0,0.5,0c1.2,0.1,2.3,0.4,3.3,0.9c0.1-0.5,0.2-1,0.2-1.4s0-0.7-0.1-1.1c0-0.1,0-0.2-0.1-0.4c0-0.1-0.1-0.2-0.1-0.4
		c-0.8-2.8-3.4-4.8-6.5-4.8c-2.5,0-4.8,1.4-5.9,3.5c-0.1,0.1-0.1,0.2-0.2,0.3c0-0.1,0,0.1-0.1,0.2c-0.3,0.8-0.5,1.6-0.5,2.5
		c0,0.2,0,0.5,0,0.7C16.5,8,16.5,8.2,16.5,8.3L16.5,8.3z M46.8,19.6c-0.2,0-0.4,0-0.6,0c0,0.2,0,0.3,0,0.5c0,2.1-0.8,4-2.2,5.5
		c0.7,0.8,1.7,1.3,2.8,1.3c2,0,3.7-1.6,3.7-3.6C50.5,21.2,48.8,19.6,46.8,19.6L46.8,19.6z M45.5,19.8c0-0.1,0-0.3,0-0.4s0-0.2,0-0.4
		c-0.5-3.4-3.4-6-7-6.2c-0.1,0-0.2,0-0.3,0h-0.1c-0.1,0-0.2,0-0.4,0c-1,0.1-2,0.4-2.9,0.8c0.5,1.2,0.8,2.4,0.9,3.8
		c0,0.1,0,0.3,0,0.4v0.1c0,0.2,0,0.3,0,0.5c-0.2,2.5-1.2,4.8-2.9,6.5c1.3,1.5,3.3,2.4,5.4,2.4c1.9,0,3.6-0.7,4.8-1.8
		c0.1-0.1,0.2-0.2,0.3-0.3c0.1-0.1,0.2-0.2,0.3-0.3c1.2-1.3,1.9-3,1.9-4.9C45.5,20,45.5,19.9,45.5,19.8L45.5,19.8z M16.9,23.3
		c-0.1-0.1-0.1-0.2-0.2-0.3c-0.5-0.9-0.9-1.9-1.1-2.9C15.3,20,15,20,14.8,20c0,0,0,0-0.1,0s-0.2,0-0.4,0c-0.1,0-0.2,0-0.4,0.1
		c-1.1,0.2-2,1-2.5,1.9c-0.1,0.1-0.1,0.2-0.2,0.4c0,0.1-0.1,0.2-0.1,0.4C11,23.1,11,23.4,11,23.7c0,0.7,0.2,1.4,0.5,1.9
		c0.1,0.1,0.1,0.2,0.2,0.3c0.1,0.1,0.2,0.2,0.2,0.3c0.7,0.7,1.6,1.1,2.7,1.1c1.6,0,2.9-1,3.4-2.3c-0.4-0.4-0.8-0.9-1.1-1.3
		C17,23.5,16.9,23.4,16.9,23.3L16.9,23.3z M34.9,18.6c0-0.2,0-0.3,0-0.5c0-0.1,0-0.2,0-0.2c0-1.3-0.3-2.6-0.8-3.8
		c0-0.1-0.1-0.2-0.2-0.3c0-0.1-0.1-0.2-0.2-0.3c-0.8-1.5-2.1-2.8-3.6-3.6c-0.1-0.1-0.2-0.1-0.3-0.2c-0.1-0.1-0.2-0.1-0.3-0.2
		c-1.2-0.5-2.4-0.9-3.8-0.9c-0.1,0-0.1,0-0.2,0s-0.2,0-0.3,0c-0.2,0-0.3,0-0.5,0c-1.5,0.1-2.9,0.6-4.1,1.3c-0.1,0.1-0.2,0.1-0.3,0.2
		c-0.1,0.1-0.2,0.2-0.3,0.2c-0.6,0.5-1.2,1-1.7,1.6c-0.1,0.1-0.2,0.2-0.2,0.3c-0.1,0.1-0.2,0.2-0.2,0.3C16.7,14,16,15.8,16,17.8
		c0,0.5,0,1.1,0.1,1.6c0,0.1,0,0.3,0.1,0.4c0,0.2,0.1,0.3,0.1,0.5c0.2,0.9,0.6,1.7,1,2.4c0.1,0.1,0.1,0.2,0.2,0.3
		c0.1,0.1,0.2,0.2,0.2,0.3c0.2,0.2,0.4,0.5,0.6,0.7c0.1,0.1,0.2,0.2,0.3,0.4c0.1,0.1,0.2,0.2,0.3,0.3c1.7,1.5,3.9,2.5,6.4,2.5
		c2.4,0,4.5-0.9,6.2-2.3c0.1-0.1,0.2-0.2,0.3-0.2c0.1-0.1,0.2-0.2,0.3-0.3c1.4-1.4,2.3-3.2,2.6-5.3C34.8,18.9,34.9,18.8,34.9,18.6
		L34.9,18.6z"/>
</g>
<g>
	<defs>
		<rect id="SVGID_1_" x="0" y="3.7" width="50.7" height="23.9"/>
	</defs>
	<clipPath id="SVGID_2_">
		<use xlink:href="#SVGID_1_"  style="overflow:visible;"/>
	</clipPath>
	<g class="st2">
		<path class="st3" d="M3,21.8c-0.6,0-1.1,0.2-1.6,0.5c-0.5,0.3-0.9,0.8-1.1,1.3C0,24.1,0,24.7,0.1,25.3c0.1,0.6,0.4,1.1,0.8,1.5
			c0.4,0.4,0.9,0.7,1.5,0.8c0.6,0.1,1.2,0.1,1.7-0.2c0.5-0.2,1-0.6,1.3-1.1c0.3-0.5,0.5-1,0.5-1.6c0-0.8-0.3-1.5-0.9-2.1
			C4.5,22.1,3.7,21.8,3,21.8z M3,26.9c-0.4,0-0.9-0.1-1.2-0.4c-0.4-0.2-0.6-0.6-0.8-1c-0.2-0.4-0.2-0.8-0.1-1.3
			c0.1-0.4,0.3-0.8,0.6-1.1c0.3-0.3,0.7-0.5,1.1-0.6c0.4-0.1,0.9,0,1.3,0.1c0.4,0.2,0.7,0.4,1,0.8c0.2,0.4,0.4,0.8,0.4,1.2
			c0,0.6-0.2,1.1-0.6,1.5C4.1,26.6,3.5,26.9,3,26.9L3,26.9z"/>
		<path class="st3" d="M13.7,22h-0.1v3.6c0,0.3-0.1,0.6-0.4,0.9c-0.2,0.2-0.6,0.4-0.9,0.4c-0.3,0-0.6-0.1-0.9-0.4
			c-0.2-0.2-0.4-0.5-0.4-0.9V22h-0.8v3.6c0,0.3-0.1,0.7-0.4,0.9c-0.2,0.2-0.6,0.4-0.9,0.4c-0.3,0-0.7-0.1-0.9-0.4
			c-0.2-0.2-0.4-0.6-0.4-0.9V22H7v3.6c0,0.4,0.1,0.8,0.4,1.2c0.3,0.3,0.6,0.6,1,0.7c0.4,0.1,0.8,0.1,1.3,0c0.4-0.1,0.8-0.4,1-0.7
			c0.2,0.3,0.6,0.6,1,0.7c0.4,0.1,0.8,0.1,1.3,0c0.4-0.1,0.8-0.4,1-0.7c0.3-0.3,0.4-0.8,0.4-1.2V22H13.7L13.7,22z"/>
		<path class="st3" d="M18.4,21.7c-0.8,0-1.5,0.3-2.1,0.9c-0.6,0.5-0.9,1.3-0.9,2.1v2.7h0.8v-2.7c0-0.6,0.2-1.1,0.6-1.5
			c0.4-0.4,1-0.6,1.5-0.6c0.6,0,1.1,0.2,1.5,0.6c0.4,0.4,0.6,1,0.6,1.5v2.7h0.8v-2.7c0-0.8-0.3-1.5-0.9-2.1
			C20,22,19.2,21.7,18.4,21.7z"/>
		<path class="st3" d="M34.1,21.8c-0.6,0-1.1,0.2-1.6,0.5c-0.5,0.3-0.9,0.8-1.1,1.3c-0.2,0.5-0.3,1.1-0.2,1.7
			c0.1,0.6,0.4,1.1,0.8,1.5c0.4,0.4,0.9,0.7,1.5,0.8c0.6,0.1,1.2,0.1,1.7-0.2c0.5-0.2,1-0.6,1.3-1.1c0.3-0.5,0.5-1,0.5-1.6
			c0-0.8-0.3-1.5-0.9-2.1C35.6,22.1,34.9,21.8,34.1,21.8z M34.1,26.9c-0.4,0-0.9-0.1-1.2-0.4c-0.4-0.2-0.6-0.6-0.8-1
			c-0.2-0.4-0.2-0.8-0.1-1.3c0.1-0.4,0.3-0.8,0.6-1.1c0.3-0.3,0.7-0.5,1.1-0.6c0.4-0.1,0.9,0,1.3,0.1c0.4,0.2,0.7,0.4,1,0.8
			c0.2,0.4,0.4,0.8,0.4,1.2c0,0.6-0.2,1.1-0.6,1.5C35.2,26.6,34.7,26.9,34.1,26.9L34.1,26.9z"/>
		<path class="st3" d="M43.2,22h-0.1v2.7c0,0.6-0.2,1.1-0.6,1.5s-1,0.6-1.5,0.6c-0.6,0-1.1-0.2-1.5-0.6c-0.4-0.4-0.6-1-0.6-1.5V22
			H38v2.7c0,0.8,0.3,1.5,0.9,2.1c0.6,0.5,1.3,0.9,2.1,0.9c0.8,0,1.5-0.3,2.1-0.9c0.6-0.5,0.9-1.3,0.9-2.1V22H43.2z"/>
		<path class="st3" d="M50.8,17.5v-0.1H50v4.4h-2.2c-0.8,0-1.5,0.3-2.1,0.9c-0.6,0.5-0.9,1.3-0.9,2.1c0,0.8,0.3,1.5,0.9,2.1
			c0.6,0.5,1.3,0.9,2.1,0.9h0.9c0.9,0,2-0.9,2.1-2V17.5z M50,25.6c0,0.7-0.7,1.3-1.3,1.3h-0.9c-0.6,0-1.1-0.2-1.5-0.6
			c-0.4-0.4-0.6-1-0.6-1.5c0-0.6,0.2-1.1,0.6-1.5c0.4-0.4,1-0.6,1.5-0.6H50C50,23.2,50,24.9,50,25.6z"/>
		<path class="st3" d="M29.2,25.6v-5.8c-0.3-0.1-0.5-0.3-0.8-0.4v6.2c0,0.5,0.2,1,0.6,1.4c0.4,0.4,0.9,0.6,1.4,0.6h0.1v-0.8h-0.1
			c-0.3,0-0.7-0.1-0.9-0.4C29.3,26.3,29.2,25.9,29.2,25.6z"/>
		<path class="st3" d="M23.2,23.2c0-0.5,0.1-1.1,0.3-1.5c0.2-0.5,0.6-0.9,1-1.3c-0.2-0.1-0.5-0.2-0.7-0.4c-0.6,0.6-1.1,1.4-1.3,2.3
			c-0.2,0.9-0.1,1.8,0.2,2.6c0.3,0.8,0.9,1.5,1.6,2c0.7,0.5,1.6,0.8,2.5,0.8h0.1v-0.8h-0.1c-1,0-1.9-0.4-2.6-1.1
			C23.6,25.1,23.2,24.1,23.2,23.2z"/>
		<path class="st3" d="M23.4,8.8c-0.2-0.4-0.3-0.9-0.3-1.4c0.1-0.5,0.3-0.9,0.7-1.2c0.4-0.3,0.8-0.5,1.3-0.6c0.5,0,1,0.1,1.4,0.3
			C26.1,6.6,26,7.2,26,7.8c0,0.1,0,0.2,0,0.4c-0.1,0-0.2,0-0.3,0C24.9,8.2,24.1,8.4,23.4,8.8z M22.9,17c-0.8-0.6-1.4-1.4-1.7-2.3
			s-0.4-1.9-0.1-2.9h-0.1c-0.6,0-1.3,0.2-1.8,0.4c-0.6,0.3-1.1,0.7-1.5,1.2c-0.4,0.5-0.6,1.1-0.7,1.7c-0.1,0.6-0.1,1.3,0.1,1.9
			c0.2,0.6,0.5,1.2,1,1.6c0.4,0.5,1,0.8,1.6,1c0.6,0.2,1.3,0.3,1.9,0.2c0.6-0.1,1.2-0.3,1.8-0.7c-0.2-0.3-0.4-0.7-0.4-1.1
			C22.7,17.8,22.8,17.4,22.9,17z M23.1,16.6c0.2-0.4,0.4-0.7,0.8-0.9c0.3-0.2,0.7-0.4,1.1-0.5c0.1,0,0.2,0,0.2,0c0.1,0,0.2,0,0.2,0
			h0.1c0.1,0,0.2,0,0.4,0C25.6,13.6,26,12,27,10.7c-0.2-0.2-0.3-0.4-0.5-0.7c0-0.1-0.1-0.1-0.1-0.2c0-0.1-0.1-0.1-0.1-0.2
			c-0.1-0.3-0.2-0.6-0.3-0.9c-0.1,0-0.2,0-0.3,0c-0.7,0-1.5,0.2-2.1,0.5c-0.1,0-0.1,0.1-0.2,0.1c-0.1,0-0.1,0.1-0.2,0.1
			c-0.7,0.5-1.3,1.2-1.6,2c0,0.1-0.1,0.1-0.1,0.2c0,0.1,0,0.1-0.1,0.2c-0.1,0.4-0.2,0.8-0.2,1.2c0,0.7,0.2,1.4,0.5,2
			C22.1,15.7,22.5,16.2,23.1,16.6L23.1,16.6z M37.5,11.4c0.6-0.3,1.3-0.5,2-0.5c-0.1-1-0.6-2-1.3-2.7c-0.8-0.7-1.7-1.1-2.8-1.1
			c-0.1,0-0.2,0-0.2,0c0,0.2,0.1,0.5,0.1,0.7c0,0.4,0,0.7-0.1,1.1C36,9.5,36.9,10.3,37.5,11.4L37.5,11.4z M26.5,8.5
			c0,0.1,0,0.2,0,0.2c0,0.2,0.1,0.4,0.2,0.5c0,0.1,0.1,0.2,0.1,0.2c0,0.1,0.1,0.1,0.1,0.2c0.1,0.2,0.2,0.4,0.4,0.6
			c0.3-0.3,0.6-0.6,1-0.9c0.1-0.1,0.1-0.1,0.2-0.1c0.1,0,0.1-0.1,0.2-0.1c1-0.6,2.1-1,3.3-1H32c0.1,0,0.2,0,0.2,0c0.1,0,0.2,0,0.3,0
			c0.7,0.1,1.4,0.2,2,0.5c0.1-0.3,0.1-0.6,0.1-0.9c0-0.2,0-0.4-0.1-0.7c0-0.1,0-0.2,0-0.2c0-0.1,0-0.2-0.1-0.2
			c-0.2-0.8-0.7-1.5-1.3-2c-0.6-0.5-1.4-0.9-2.2-0.9c-0.8-0.1-1.6,0.1-2.3,0.4S27.4,5.1,27,5.8c0,0.1-0.1,0.1-0.1,0.2
			c0,0.1-0.1,0.2-0.1,0.2c-0.2,0.5-0.3,1-0.3,1.5c0,0.1,0,0.3,0,0.4C26.5,8.3,26.5,8.4,26.5,8.5L26.5,8.5z M45,15.4
			c-0.1,0-0.2,0-0.4,0c0,0.1,0,0.2,0,0.3c0,1.3-0.5,2.5-1.3,3.4c0.2,0.3,0.6,0.5,0.9,0.6c0.4,0.1,0.7,0.2,1.1,0.1
			c0.4-0.1,0.7-0.2,1-0.4c0.3-0.2,0.5-0.5,0.7-0.9c0.2-0.3,0.2-0.7,0.2-1.1s-0.1-0.7-0.4-1c-0.2-0.3-0.5-0.6-0.8-0.8
			C45.8,15.5,45.4,15.4,45,15.4z M44.2,15.5c0-0.1,0-0.2,0-0.2c0-0.1,0-0.2,0-0.2c-0.2-1-0.7-2-1.4-2.6c-0.8-0.7-1.8-1.1-2.8-1.1
			c-0.1,0-0.1,0-0.2,0h-0.1c-0.1,0-0.2,0-0.2,0c-0.6,0-1.2,0.2-1.8,0.5c0.3,0.7,0.5,1.5,0.5,2.3c0,0.1,0,0.2,0,0.2c0,0,0,0,0,0.1
			c0,0.1,0,0.2,0,0.3c-0.1,1.5-0.7,2.9-1.8,3.9c0.8,0.9,1.9,1.4,3.1,1.5s2.3-0.3,3.2-1.1c0.1-0.1,0.1-0.1,0.2-0.2
			c0.1-0.1,0.1-0.1,0.2-0.2c0.7-0.8,1.2-1.9,1.2-3C44.2,15.6,44.2,15.6,44.2,15.5L44.2,15.5z M26.8,17.6c0-0.1-0.1-0.1-0.1-0.2
			c-0.3-0.5-0.6-1.1-0.7-1.8c-0.2,0-0.3,0-0.5,0h0c-0.1,0-0.2,0-0.2,0c-0.1,0-0.2,0-0.2,0c-0.3,0.1-0.6,0.2-0.9,0.4
			c-0.3,0.2-0.5,0.5-0.6,0.8c0,0.1-0.1,0.1-0.1,0.2c0,0.1-0.1,0.1-0.1,0.2c-0.1,0.3-0.1,0.6,0,0.9c0,0.3,0.2,0.6,0.3,0.8
			c0,0.1,0.1,0.1,0.1,0.2c0,0.1,0.1,0.1,0.1,0.2c0.3,0.3,0.6,0.5,0.9,0.6c0.4,0.1,0.7,0.1,1.1,0.1c0.4-0.1,0.7-0.2,1-0.5
			c0.3-0.2,0.5-0.6,0.6-0.9c-0.3-0.3-0.5-0.5-0.7-0.8C26.8,17.8,26.8,17.7,26.8,17.6L26.8,17.6z M37.7,14.8c0-0.1,0-0.2,0-0.3
			c0,0,0-0.1,0-0.1c0-0.8-0.2-1.6-0.5-2.3c0-0.1-0.1-0.1-0.1-0.2c0-0.1-0.1-0.1-0.1-0.2c-0.5-0.9-1.3-1.7-2.2-2.2l-0.2-0.1
			c-0.1,0-0.1-0.1-0.2-0.1c-0.7-0.3-1.5-0.5-2.3-0.5H32c-0.1,0-0.1,0-0.2,0c-0.1,0-0.2,0-0.3,0C30.7,8.7,29.8,9,29,9.4
			c-0.1,0-0.1,0.1-0.2,0.1c-0.1,0-0.1,0.1-0.2,0.1c-0.4,0.3-0.7,0.6-1,0.9c-0.1,0.1-0.1,0.1-0.1,0.2c0,0.1-0.1,0.1-0.1,0.2
			c-0.4,0.6-0.8,1.3-0.9,2c-0.2,0.7-0.2,1.5-0.1,2.2c0,0.1,0,0.2,0.1,0.3c0,0.1,0,0.2,0.1,0.3c0.1,0.5,0.4,1,0.6,1.5
			c0,0.1,0.1,0.1,0.1,0.2c0,0.1,0.1,0.1,0.1,0.2c0.1,0.1,0.2,0.3,0.3,0.4c0.1,0.1,0.1,0.1,0.2,0.2c0.1,0.1,0.1,0.1,0.2,0.2
			c1,1,2.4,1.5,3.8,1.5c1.4,0,2.8-0.5,3.9-1.4c0.1-0.1,0.1-0.1,0.2-0.2c0.1-0.1,0.1-0.1,0.2-0.2c0.9-0.9,1.4-2,1.6-3.2
			C37.7,15,37.7,14.9,37.7,14.8L37.7,14.8z"/>
	</g>
</g>
</svg>
