<?xml version="1.0" encoding="UTF-8" standalone="no"?>
<svg xmlns:rdf="http://www.w3.org/1999/02/22-rdf-syntax-ns#" xmlns="http://www.w3.org/2000/svg" enable-background="new 0 0 100 47.275" xml:space="preserve" height="32" viewBox="0 0 32 31.999999" width="32" version="1.0" y="0px" x="0px" xmlns:cc="http://creativecommons.org/ns#" xmlns:dc="http://purl.org/dc/elements/1.1/"><path fill="#fff" d="m30.981 29.937 0.019-4.314-12.578-12.579c0.819-2.97 0.08-6.2671-2.243-8.5791-3.444-3.4593-9.0642-3.4305-12.551 0.0408-3.4794 3.495-3.5079 9.1143-0.0612 12.571 2.3144 2.307 5.6032 3.0457 8.5702 2.2333l2.53 2.53 4.0078 0.000529-0.000528 3.0671 2.9441-0.000267 0.000528 3.0244 3.0657 0.000792 0.000792 3.0657 5.2329 0.001c0.7721-0.01601 1.0581-0.2828 1.0624-1.0629zm-25.493-20.258c-0.91403-0.93111-0.90523-2.4238 0.02107-3.333 0.92177-0.93884 2.4139-0.94711 3.3322-0.02028 0.91216 0.90256 0.90336 2.3953-0.02001 3.3325-0.92444 0.9111-2.4169 0.91964-3.3333 0.02081z"/></svg>
