<?xml version="1.0" encoding="UTF-8" standalone="no"?>
<svg xmlns:rdf="http://www.w3.org/1999/02/22-rdf-syntax-ns#" xmlns="http://www.w3.org/2000/svg" height="32px" width="32px" version="1.1" xmlns:cc="http://creativecommons.org/ns#" xmlns:dc="http://purl.org/dc/elements/1.1/">
 <path d="m14.903 3.2373 4.7612 4.5146-7.1418 6.772 4.7612 4.5146 7.1418-6.772 4.7612 4.5146v-13.545h-14.283zm-9.5224 2.2573c-1.3189 0-2.3806 1.0068-2.3806 2.2573v18.058c0 1.2506 1.0617 2.2573 2.3806 2.2573h19.044c1.3188 0 2.3806-1.0068 2.3806-2.2573v-6.772l-2.3806-2.2573v9.0293h-19.044v-18.058h9.522l-2.381-2.2574h-7.1414z" fill="#fff"/>
 <path d="m15.156 11.312l-2.281 0.344v1.813l2.281-2.157zm-2.844 0.407l-5.8432 0.875v4.906h5.8432v-5.781zm0.563 3.812v1.969h2.063l-2.063-1.969zm8.063 0.719l-1.313 1.25h1.313v-1.25zm-14.469 1.812v4.969l5.8432 0.844v-5.813h-5.8432zm6.4062 0v5.907l8.063 1.187v-7.094h-1.907l-1.406 1.344c-0.184 0.174-0.504 0.174-0.687 0l-1.407-1.344h-2.656z" fill="#fff"/>
</svg>
