<?xml version="1.0" encoding="UTF-8" standalone="no"?>
<svg xmlns:rdf="http://www.w3.org/1999/02/22-rdf-syntax-ns#" xmlns="http://www.w3.org/2000/svg" height="16" width="16" version="1.0" xmlns:cc="http://creativecommons.org/ns#" xmlns:dc="http://purl.org/dc/elements/1.1/">
 <path fill-rule="evenodd" fill="#55739a" d="m1.457 1.998c-0.2505 0-0.46091 0.2085-0.46091 0.459v11.08c0 0.259 0.20211 0.461 0.46091 0.461h13.08c0.259 0 0.459-0.202 0.459-0.461v-9.078c0-0.2504-0.208-0.461-0.459-0.461h-6.5409l-2-2h-4.5391zm9.543 3.9278v2.8984h-3.3379v-2.4101l3.3379-0.4883zm-3.5762 0.5117v2.3867h-2.4238v-2.0234l2.4238-0.3633zm-2.4238 2.625h2.4238v2.4145l-2.4238-0.352v-2.0625zm2.6621 0h3.3379v2.9375l-3.3379-0.488v-2.4495z"/>
 <path d="m15.898 13.871-2.201-3.8019c-0.02501-0.05003-0.07504-0.10004-0.10004-0.15007-0.2251-0.22511-0.57526-0.22511-0.80036 0-0.05003 0.05003-0.07504 0.07504-0.10004 0.12506l-2.201 3.8019c-0.02501 0.05003-0.05003 0.10004-0.07504 0.17509-0.07504 0.30015 0.10004 0.62531 0.40018 0.70035 0.05003 0.02501 0.12506 0.02501 0.17508 0.02501h4.402c0.20009 0.02501 0.42519-0.07504 0.52524-0.27514 0.10004-0.2001 0.10004-0.42521-0.02501-0.6003z" fill="#b23015"/>
 <path d="m13.224 14c-0.25987 0-0.44888-0.2126-0.44888-0.44882s0.21262-0.44882 0.44888-0.44882c0.25987 0 0.44887 0.2126 0.44887 0.44882 0 0.25984-0.189 0.44882-0.44887 0.44882zm0.16538-1.2047h-0.33075l-0.30712-1.3228c0-0.25984 0.21263-0.47244 0.4725-0.47244s0.4725 0.2126 0.4725 0.47244z" fill="#fff"/>
</svg>
