<?xml version="1.0" encoding="UTF-8" standalone="no"?>
<svg xmlns:rdf="http://www.w3.org/1999/02/22-rdf-syntax-ns#" xmlns="http://www.w3.org/2000/svg" height="16" width="16" version="1.0" xmlns:cc="http://creativecommons.org/ns#" xmlns:dc="http://purl.org/dc/elements/1.1/">
 <path fill-rule="evenodd" fill="#55739a" d="m1.457 1.998c-0.2505 0-0.46091 0.2085-0.46091 0.459v11.08c0 0.259 0.20211 0.461 0.46091 0.461h13.08c0.259 0 0.459-0.202 0.459-0.461v-9.078c0-0.2504-0.208-0.461-0.459-0.461h-6.5409l-2-2h-4.5391zm9.543 3.9278v2.8984h-3.3379v-2.4101l3.3379-0.4883zm-3.5762 0.5117v2.3867h-2.4238v-2.0234l2.4238-0.3633zm-2.4238 2.625h2.4238v2.4145l-2.4238-0.352v-2.0625zm2.6621 0h3.3379v2.9375l-3.3379-0.488v-2.4495z"/>
 <circle fill-rule="evenodd" cy="12.5" cx="13.5" stroke-miterlimit="1.4142" clip-rule="evenodd" r="2.5" fill="#b23015"/>
 <path d="m14.073 11c-0.11592 0-0.23228 0.04324-0.31922 0.13018l-0.4777 0.47885c-0.17387 0.17388-0.17387 0.46345 0 0.63733l-1.276 1.275v0.319l0.479 0.16v-0.31923h0.31809v-0.31923h0.31922l0.63731-0.63733c0.08694 0.08694 0.20331 0.13018 0.31922 0.13018 0.11592 0 0.23115-0.04324 0.31809-0.13018l0.47883-0.47772c0.17387-0.17388 0.17387-0.46345 0-0.63733l-0.479-0.479c-0.08694-0.08694-0.20217-0.13018-0.31809-0.13018zm0 0.18792c0.01449 0 0.04347 0.000453 0.07245 0.02943l0.63731 0.63733c0.04347 0.04347 0.04347 0.11615 0 0.15962-0.01449 0.01449-0.04347 0.02943-0.07245 0.02943s-0.05819-0.01494-0.08717-0.02943l-0.6373-0.63733c-0.04347-0.04347-0.04347-0.11614 0-0.15962 0.02898-0.01449 0.05819-0.02943 0.08717-0.02943z" stroke-miterlimit="1.4142" clip-rule="evenodd" fill="#fff"/>
</svg>
