<?xml version="1.0" encoding="UTF-8" standalone="no"?>
<svg xmlns:rdf="http://www.w3.org/1999/02/22-rdf-syntax-ns#" xmlns="http://www.w3.org/2000/svg" height="16" width="16" version="1.0" xmlns:cc="http://creativecommons.org/ns#" xmlns:dc="http://purl.org/dc/elements/1.1/">
 <path fill-rule="evenodd" fill="#55739a" d="m1.457 1.998c-0.2505 0-0.46091 0.2085-0.46091 0.459v11.08c0 0.259 0.20211 0.461 0.46091 0.461h13.08c0.259 0 0.459-0.202 0.459-0.461v-9.078c0-0.2504-0.208-0.461-0.459-0.461h-6.5409l-2-2h-4.5391zm9.543 3.9278v2.8984h-3.3379v-2.4101l3.3379-0.4883zm-3.5762 0.5117v2.3867h-2.4238v-2.0234l2.4238-0.3633zm-2.4238 2.625h2.4238v2.4145l-2.4238-0.352v-2.0625zm2.6621 0h3.3379v2.9375l-3.3379-0.488v-2.4495z"/>
 <circle fill-rule="evenodd" cy="12.5" cx="13.5" stroke-miterlimit="1.4142" clip-rule="evenodd" r="2.5" fill="#b23015"/>
 <path d="m12.635 11v0.75l0.57312 0.75-0.57312 0.75v0.75h1.7642v-0.75l-0.57312-0.75 0.57312-0.75v-0.75zm0.2791 0.32389h1.1761v0.3974l-0.58805 0.74885h-0.00001l-0.58805-0.74885z" stroke-miterlimit="1.4142" clip-rule="evenodd" fill="#fff"/>
</svg>
